# xmcd CD database file
#
# Track frame offsets:
#	150
#	27200
#	40174
#	55035
#	92404
#	114864
#	146764
#	172250
#	199758
#	235510
#	244121
#	273596
#	288466
#	299440
#	327047
#
# Disc length: 4711 seconds
#
# Revision: 7
# Processed by: cddbd v1.5.2PL0 Copyright (c) Steve Scherf et al.
# Submitted via: CDex 1.81
#
DISCID=d512650f
DTITLE=BestJazz100-PremiumStandards - Best Jazz 100 Premium Standards 1 - Great Standards
DYEAR=2000
DGENRE=Jazz
TTITLE0=My Funny Valentine
TTITLE1=Take The A Train
TTITLE2=Body And Soul
TTITLE3=A Night In Tunisia
TTITLE4=Summertime
TTITLE5=You And The Night And The Music
TTITLE6=Satin Doll
TTITLE7=What Is This Thing Called Love
TTITLE8=Softly As In A Morning Sunrise
TTITLE9=It Don't Mean A Thing
TTITLE10=Autumn Leaves
TTITLE11=Smoke Gets In Your Eyes
TTITLE12=Lullaby Of Birdland
TTITLE13=Stardust
TTITLE14=Misty
EXTD=YEAR: 2000
EXTT0=
EXTT1=
EXTT2=
EXTT3=
EXTT4=
EXTT5=
EXTT6=
EXTT7=
EXTT8=
EXTT9=
EXTT10=
EXTT11=
EXTT12=
EXTT13=
EXTT14=
PLAYORDER=
